<?xml version="1.0" encoding="utf-8"?>
<!-- Generator: Adobe Illustrator 16.0.0, SVG Export Plug-In . SVG Version: 6.00 Build 0)  -->
<!DOCTYPE svg PUBLIC "-//W3C//DTD SVG 1.1//EN" "http://www.w3.org/Graphics/SVG/1.1/DTD/svg11.dtd">
<svg version="1.1" id="图层_1" xmlns="http://www.w3.org/2000/svg" xmlns:xlink="http://www.w3.org/1999/xlink" x="0px" y="0px"
	 width="600px" height="600px" viewBox="0 0 600 600" enable-background="new 0 0 600 600" xml:space="preserve">
<g>
	<path fill="#3498DB" d="M446.033,81c-17.638,0-34.219,7.183-45.334,18.794c-1.337,0.779-2.555,1.718-3.611,2.795l-55.189,55.269
		l-213.438-24.82c-1.056-0.161-5.188-0.56-6.305-0.56c-8.978,0-17.738,3.632-24.104,9.977l-39.646,39.607
		c-0.558,0.557-1.056,1.118-1.495,1.735c-2.615,2.954-4.688,6.245-6.147,9.819c-3.452,8.599-3.412,17.896,0.22,26.397
		c3.632,8.518,10.376,15.042,18.916,18.516l136.179,54.87l-24.223,24.162l-67.979-9.815c-0.938-0.159-4.689-0.438-5.587-0.438
		c-9.136,0-18.018,3.672-24.162,10.035l-42.14,42.002c-2.515,2.332-4.75,5.167-7.544,10.035
		c-8.239,17.12-1.176,37.811,15.804,46.071l91.326,45.076l41.921,87.294c1.557,3.352,3.892,7.703,7.082,10.258
		c6.425,6.801,15.126,10.533,24.564,10.533c9.216,0,18.198-3.732,24.521-10.157l41.921-41.841
		c8.321-7.861,12.273-19.232,10.595-30.389l-10.096-68.338l24.442-24.303l53.975,133.764c1.775,5.508,4.868,10.438,8.321,13.729
		c13.049,13.387,36.334,13.208,49.063,0.158l39.625-39.446c0.5-0.499,0.959-1.056,1.397-1.615
		c6.485-7.184,9.499-16.841,8.382-26.957l-25.222-215.234l55.707-55.667c20.533-20.533,26.3-48.428,15.385-74.526
		C501.683,100.236,474.086,81,446.033,81L446.033,81z M473.489,178.111l-61.556,61.517c-3.751,3.692-5.525,8.877-4.908,14.126
		l26.297,223.556c-0.32,0.316-0.676,0.719-0.956,1.056l-39.687,37.254l-64.01-158.81c-2.177-5.285-6.826-9.196-12.452-10.372
		c-5.587-1.118-11.433,0.496-15.563,4.627l-48.964,48.646c-3.851,3.85-5.626,9.259-4.85,14.667l10.814,77.655l-42.359,42.28
		c-0.061,0.062-0.179,0.062-0.179,0.062l-45.212-94.04c-1.678-3.451-4.412-6.243-7.861-7.922l-96.276-48.405l42.862-42.399
		l76.796,11.091c5.469,0.662,10.775-1.056,14.568-4.847l48.665-48.527c4.07-4.027,5.846-9.876,4.688-15.521
		c-1.117-5.626-5.03-10.314-10.376-12.492L82.706,206.267c0.34-0.341,0.679-0.661,0.958-1.02l39.507-38.368l222.916,25.937
		c5.127,0.779,10.376-1.237,14.105-4.909l57.826-58.581c1.276-0.719,3.012-2.156,4.071-3.172
		c19.534-19.415,49.462-8.979,59.339,14.723C484.642,148.621,487.875,163.667,473.489,178.111L473.489,178.111z M473.489,178.111"/>
</g>
</svg>
